<svg width="33" height="33" viewBox="0 0 33 33" fill="none" xmlns="http://www.w3.org/2000/svg">
<path d="M19.2039 12.7912L18.561 10.9717L13.1081 3.68394L14.0877 3.44095L23.4896 11.5686L29.0229 9.98635C29.6734 9.81798 30.412 9.78163 30.9745 9.78545C29.2353 6.03538 26.0535 2.95688 21.8519 1.46068C13.5462 -1.49919 4.41405 2.84017 1.45991 11.1496C0.545352 13.7192 0.327237 16.371 0.71181 18.8928L13.9672 14.2874L19.2039 12.7912Z" fill="white"/>
<path d="M31.5568 11.2217C31.0708 11.5374 30.3572 11.9507 29.6493 12.1784L24.1045 13.7607L20.4042 25.6384L19.4437 25.9503L20.2243 16.8793L19.7881 14.9947L14.5916 16.4775L0.85791 19.711C1.94466 24.9975 5.68708 29.6009 11.1419 31.5448C19.4494 34.5047 28.5778 30.1634 31.5319 21.8597C32.8062 18.2799 32.7239 14.5451 31.5568 11.2217Z" fill="white"/>
</svg>
